<svg width="70" height="70" viewBox="0 0 70 70" fill="none" xmlns="http://www.w3.org/2000/svg">
<rect width="70" height="70" rx="15" fill="white"/>
<path fill-rule="evenodd" clip-rule="evenodd" d="M49.48 41.6157C49.8652 47.0571 44.6303 51.2108 39.3185 49.6786L38.7356 49.5105C37.4141 49.1293 36.2085 48.4328 35.2255 47.4827L20.6837 33.4269C20.4421 33.1934 20.4383 32.8111 20.6753 32.573C20.9122 32.3349 21.3001 32.3312 21.5417 32.5647L36.0835 46.6205C36.9226 47.4316 37.9518 48.0261 39.0798 48.3515L39.6627 48.5197C44.1556 49.8156 48.5834 46.3022 48.2576 41.6998C48.1476 40.1465 47.486 38.6809 46.389 37.5604L32.0772 22.9428C31.673 22.53 31.2005 22.1881 30.68 21.9315L30.2462 21.7178C27.0351 20.1355 23.257 22.4367 23.257 25.9748C23.257 27.2208 23.7528 28.4171 24.6379 29.3068L37.7977 42.5356C38.1172 42.8568 38.5165 43.0908 38.9555 43.2145C40.457 43.6372 42.0009 42.6866 42.2721 41.1721C42.4213 40.3387 42.1485 39.486 41.5414 38.8876L29.2569 26.7809C29.0176 26.5451 29.0176 26.1628 29.2569 25.927C29.4962 25.6912 29.8841 25.6912 30.1233 25.927L42.4078 38.0336C43.2977 38.9107 43.6975 40.1605 43.4788 41.382C43.0811 43.603 40.8182 44.9949 38.6189 44.3756C37.9759 44.1946 37.391 43.8518 36.9227 43.381L23.7629 30.1522C22.6532 29.0368 22.0317 27.5369 22.0317 25.9748C22.0317 21.539 26.7684 18.6539 30.7942 20.6377L31.228 20.8514C31.8729 21.1692 32.4583 21.5929 32.9589 22.1043L47.2707 36.7218C48.5678 38.0466 49.35 39.7793 49.48 41.6157Z" fill="#0052CD" stroke="#0052CD"/>
</svg>
