<svg width="70" height="70" viewBox="0 0 70 70" fill="none" xmlns="http://www.w3.org/2000/svg">
<rect width="70" height="70" rx="15" fill="white"/>
<path fill-rule="evenodd" clip-rule="evenodd" d="M44.2059 35.6072C44.5208 35.7121 44.691 36.0525 44.586 36.3674L43.5196 39.5666C40.7516 47.8706 28.9659 47.7558 26.3602 39.3995L25.4112 36.3563C25.3124 36.0394 25.4892 35.7024 25.8061 35.6036C26.1229 35.5048 26.4599 35.6816 26.5588 35.9984L27.5077 39.0416C29.766 46.2838 39.9803 46.3833 42.3793 39.1865L43.4456 35.9873C43.5506 35.6724 43.891 35.5022 44.2059 35.6072Z" fill="#0052CD" stroke="#0052CD"/>
<path fill-rule="evenodd" clip-rule="evenodd" d="M34.3993 48.7998V45.4941H35.6014V48.7998H39.5081C39.84 48.7998 40.1091 49.0689 40.1091 49.4008C40.1091 49.7328 39.84 50.0019 39.5081 50.0019H30.4926C30.1607 50.0019 29.8916 49.7328 29.8916 49.4008C29.8916 49.0689 30.1607 48.7998 30.4926 48.7998H34.3993Z" fill="#0052CD" stroke="#0052CD"/>
<path d="M39.2585 25.9208V35.8C39.2585 37.0996 38.665 38.328 37.6469 39.1356C36.097 40.3651 33.9045 40.3651 32.3547 39.1356C31.3366 38.328 30.7431 37.0996 30.7431 35.8V25.5442C30.7431 24.1574 31.4454 22.865 32.609 22.1106C33.8983 21.2747 35.5472 21.2315 36.8785 21.9987L37.0488 22.0969C38.416 22.8848 39.2585 24.3428 39.2585 25.9208ZM31.683 20.6824C30.0355 21.7507 29.041 23.5806 29.041 25.5442V35.8C29.041 37.6191 29.8718 39.3385 31.2969 40.469C33.4663 42.19 36.5353 42.19 38.7047 40.469C40.1298 39.3385 40.9606 37.6191 40.9606 35.8V25.9208C40.9606 23.7342 39.7932 21.714 37.8987 20.6222L37.7284 20.524C35.8433 19.4377 33.5086 19.4988 31.683 20.6824Z" fill="#0052CD" stroke="#0052CD" stroke-width="0.5"/>
</svg>
