<svg width="90" height="90" viewBox="0 0 90 90" fill="none" xmlns="http://www.w3.org/2000/svg">
<g filter="url(#filter0_d_2552_3940)">
<path d="M9 26C9 17.7157 15.7157 11 24 11H64C72.2843 11 79 17.7157 79 26V66C79 74.2843 72.2843 81 64 81H24C15.7157 81 9 74.2843 9 66V26Z" fill="#0052CD"/>
</g>
<path d="M62 46.8441L49.5421 60.6863C49.3655 60.8825 49.04 60.7576 49.04 60.4936L49.04 51.0039C41.5 51.0039 25 49.5039 25 46.8441C25 44.1844 41.5 41.0039 49.04 41.0039L49.04 31.8109C49.04 31.5403 49.3795 31.4191 49.5509 31.6286L62 46.8441Z" stroke="white" stroke-width="2.88"/>
<defs>
<filter id="filter0_d_2552_3940" x="0" y="0" width="90" height="90" filterUnits="userSpaceOnUse" color-interpolation-filters="sRGB">
<feFlood flood-opacity="0" result="BackgroundImageFix"/>
<feColorMatrix in="SourceAlpha" type="matrix" values="0 0 0 0 0 0 0 0 0 0 0 0 0 0 0 0 0 0 127 0" result="hardAlpha"/>
<feOffset dx="1" dy="-1"/>
<feGaussianBlur stdDeviation="5"/>
<feComposite in2="hardAlpha" operator="out"/>
<feColorMatrix type="matrix" values="0 0 0 0 0 0 0 0 0 0 0 0 0 0 0 0 0 0 0.25 0"/>
<feBlend mode="normal" in2="BackgroundImageFix" result="effect1_dropShadow_2552_3940"/>
<feBlend mode="normal" in="SourceGraphic" in2="effect1_dropShadow_2552_3940" result="shape"/>
</filter>
</defs>
</svg>
